<svg width="1040" height="238" viewBox="0 0 1040 238" fill="none" xmlns="http://www.w3.org/2000/svg">
<path fill-rule="evenodd" clip-rule="evenodd" d="M0 237.955L6.58269 220.455L29.6607 219.704L45.7921 213.14L62.6568 212.779L74.9466 203.128L85.7558 178.036L92.6851 169.058L111.191 187.785L126.242 190.634L137.255 185.198L150.543 161.233L188.642 209.823L204.328 188.895L222.312 199.399L232.005 183.384L233.896 175.7L248.495 167.853L256.034 157.189L264.366 172.085L262.988 181.866L270.674 183.312L276.639 178.958L291.837 110.03L306.695 200.417L319.598 187.533V180.174L330.629 172.571L335.793 166.743L345.297 157.977L367.891 167.117L379.139 172.085L388.218 168.869L404.055 183.323L427.091 154.915L433.831 170.407L448.274 181.124L462.276 177.691L468.816 170.405L479.285 167.113L480.604 160.857L492.55 145.474L510.088 149.843L519.526 138.666L539.485 225.86L556.63 207.924L579.224 206.67L606.298 219.399L616.816 169.745L630.011 172.54L636.221 166.704L639.719 168.568L646.283 167.999L650.033 170.51L660.453 172.148L660.639 177.704L673.094 181.226L688.657 180.447L689.474 171.147L693.389 134.606L705.076 135.236L718.751 143.62L752.968 126.475L767.721 108.898L774.282 114.464L776.762 119.984L788.785 126.308L809.214 114.603L846.529 78L857.363 91.6411L887.98 113.919L899.512 104.101L912.051 99.5437L933.435 106.371L946.924 99.785L970.301 108.677L981.236 91.1222L1002.49 91.5984L1006.3 95.6618L1040 85.9027V237.955H86.0823H0Z" fill="url(#paint0_linear)"/>
<path d="M156.527 1V201" stroke="#CFE8FB" stroke-linecap="square"/>
<path d="M331.621 1V201" stroke="#CFE8FB" stroke-linecap="square"/>
<path d="M512.753 1V201" stroke="#CFE8FB" stroke-linecap="square"/>
<path d="M689.34 1V201" stroke="#CFE8FB" stroke-linecap="square"/>
<path d="M873.491 1V201" stroke="#CFE8FB" stroke-linecap="square"/>
<path d="M74.209 12.1104C74.209 13.4229 73.9036 14.4277 73.293 15.125C72.6868 15.8223 71.8073 16.1709 70.6543 16.1709C70.1393 16.1709 69.6631 16.082 69.2256 15.9043V13.833C69.6038 14.1201 70.0277 14.2637 70.4971 14.2637C71.5042 14.2637 72.0078 13.5163 72.0078 12.0215V6.19727H74.209V12.1104ZM81.8311 16H79.7871V14.9951H79.7598C79.2904 15.779 78.5954 16.1709 77.6748 16.1709C76.9958 16.1709 76.4603 15.9795 76.0684 15.5967C75.681 15.2093 75.4873 14.6943 75.4873 14.0518C75.4873 12.6937 76.2917 11.9098 77.9004 11.7002L79.8008 11.4473C79.8008 10.6816 79.3861 10.2988 78.5566 10.2988C77.7227 10.2988 76.9297 10.5472 76.1777 11.0439V9.41699C76.4785 9.26204 76.8887 9.12533 77.4082 9.00684C77.9323 8.88835 78.4085 8.8291 78.8369 8.8291C80.833 8.8291 81.8311 9.82487 81.8311 11.8164V16ZM79.8008 13.1562V12.6846L78.5293 12.8486C77.8275 12.9398 77.4766 13.2565 77.4766 13.7988C77.4766 14.0449 77.5609 14.2477 77.7295 14.4072C77.9027 14.5622 78.1351 14.6396 78.4268 14.6396C78.8324 14.6396 79.1628 14.5007 79.418 14.2227C79.6732 13.9401 79.8008 13.5846 79.8008 13.1562ZM90.3008 16H88.1475V12.1104C88.1475 11.0257 87.7601 10.4834 86.9854 10.4834C86.6117 10.4834 86.304 10.627 86.0625 10.9141C85.821 11.2012 85.7002 11.5658 85.7002 12.0078V16H83.54V9H85.7002V10.1074H85.7275C86.2425 9.25521 86.9922 8.8291 87.9766 8.8291C89.526 8.8291 90.3008 9.79069 90.3008 11.7139V16Z" fill="black"/>
<path d="M236.788 7.99512H233.329V10.4014H236.508V12.1924H233.329V16H231.121V6.19727H236.788V7.99512ZM244.485 13.1152H239.919C239.992 14.1315 240.632 14.6396 241.84 14.6396C242.61 14.6396 243.287 14.4574 243.87 14.0928V15.6514C243.223 15.9977 242.382 16.1709 241.348 16.1709C240.217 16.1709 239.34 15.8587 238.716 15.2344C238.091 14.6055 237.779 13.7305 237.779 12.6094C237.779 11.4473 238.117 10.5267 238.791 9.84766C239.465 9.16862 240.295 8.8291 241.279 8.8291C242.3 8.8291 243.089 9.13216 243.645 9.73828C244.205 10.3444 244.485 11.167 244.485 12.2061V13.1152ZM242.482 11.7891C242.482 10.7865 242.077 10.2852 241.266 10.2852C240.919 10.2852 240.618 10.4287 240.363 10.7158C240.113 11.0029 239.96 11.3607 239.905 11.7891H242.482ZM247.958 15.1865H247.931V16H245.771V5.63672H247.931V10.0527H247.958C248.491 9.23698 249.25 8.8291 250.234 8.8291C251.137 8.8291 251.832 9.139 252.319 9.75879C252.807 10.3786 253.051 11.2262 253.051 12.3018C253.051 13.4684 252.766 14.4049 252.196 15.1113C251.627 15.8177 250.866 16.1709 249.913 16.1709C249.052 16.1709 248.4 15.8428 247.958 15.1865ZM247.896 12.2334V12.9512C247.896 13.4023 248.026 13.776 248.286 14.0723C248.546 14.3685 248.879 14.5166 249.284 14.5166C249.776 14.5166 250.157 14.3275 250.426 13.9492C250.699 13.5664 250.836 13.0264 250.836 12.3291C250.836 11.7503 250.711 11.2992 250.46 10.9756C250.214 10.6475 249.861 10.4834 249.4 10.4834C248.967 10.4834 248.607 10.6452 248.32 10.9688C248.038 11.2923 247.896 11.7139 247.896 12.2334Z" fill="black"/>
<path d="M417.291 16H415.11V10.1348C415.11 9.5013 415.138 8.80176 415.192 8.03613H415.138C415.024 8.6377 414.921 9.07064 414.83 9.33496L412.533 16H410.729L408.391 9.40332C408.327 9.22559 408.224 8.76986 408.083 8.03613H408.021C408.081 9.00228 408.11 9.84993 408.11 10.5791V16H406.121V6.19727H409.354L411.357 12.0078C411.517 12.4727 411.633 12.9398 411.706 13.4092H411.747C411.87 12.8669 412 12.3952 412.137 11.9941L414.14 6.19727H417.291V16ZM425.132 16H423.088V14.9951H423.061C422.591 15.779 421.896 16.1709 420.976 16.1709C420.297 16.1709 419.761 15.9795 419.369 15.5967C418.982 15.2093 418.788 14.6943 418.788 14.0518C418.788 12.6937 419.592 11.9098 421.201 11.7002L423.102 11.4473C423.102 10.6816 422.687 10.2988 421.857 10.2988C421.023 10.2988 420.23 10.5472 419.479 11.0439V9.41699C419.779 9.26204 420.189 9.12533 420.709 9.00684C421.233 8.88835 421.709 8.8291 422.138 8.8291C424.134 8.8291 425.132 9.82487 425.132 11.8164V16ZM423.102 13.1562V12.6846L421.83 12.8486C421.128 12.9398 420.777 13.2565 420.777 13.7988C420.777 14.0449 420.862 14.2477 421.03 14.4072C421.203 14.5622 421.436 14.6396 421.728 14.6396C422.133 14.6396 422.464 14.5007 422.719 14.2227C422.974 13.9401 423.102 13.5846 423.102 13.1562ZM431.407 10.9482C431.147 10.807 430.844 10.7363 430.498 10.7363C430.029 10.7363 429.662 10.9095 429.397 11.2559C429.133 11.5977 429.001 12.0648 429.001 12.6572V16H426.841V9H429.001V10.2988H429.028C429.37 9.35091 429.985 8.87695 430.874 8.87695C431.102 8.87695 431.28 8.9043 431.407 8.95898V10.9482Z" fill="black"/>
<path d="M583.741 16H581.335L580.638 13.8193H577.151L576.461 16H574.068L577.637 6.19727H580.255L583.741 16ZM580.132 12.124L579.079 8.8291C579.002 8.58301 578.947 8.28906 578.915 7.94727H578.86C578.838 8.23438 578.781 8.51921 578.689 8.80176L577.623 12.124H580.132ZM586.94 15.1865H586.913V19.2197H584.753V9H586.913V10.0527H586.94C587.474 9.23698 588.223 8.8291 589.189 8.8291C590.096 8.8291 590.796 9.14128 591.288 9.76562C591.785 10.3854 592.033 11.2308 592.033 12.3018C592.033 13.4684 591.744 14.4049 591.165 15.1113C590.591 15.8177 589.825 16.1709 588.868 16.1709C588.025 16.1709 587.382 15.8428 586.94 15.1865ZM586.879 12.3154V12.876C586.879 13.359 587.007 13.7533 587.262 14.0586C587.517 14.3639 587.852 14.5166 588.267 14.5166C588.759 14.5166 589.139 14.3275 589.408 13.9492C589.682 13.5664 589.818 13.0264 589.818 12.3291C589.818 11.0986 589.34 10.4834 588.383 10.4834C587.941 10.4834 587.578 10.652 587.296 10.9893C587.018 11.3219 586.879 11.764 586.879 12.3154ZM598.001 10.9482C597.741 10.807 597.438 10.7363 597.092 10.7363C596.622 10.7363 596.256 10.9095 595.991 11.2559C595.727 11.5977 595.595 12.0648 595.595 12.6572V16H593.435V9H595.595V10.2988H595.622C595.964 9.35091 596.579 8.87695 597.468 8.87695C597.696 8.87695 597.873 8.9043 598.001 8.95898V10.9482Z" fill="black"/>
<path d="M775.291 16H773.11V10.1348C773.11 9.5013 773.138 8.80176 773.192 8.03613H773.138C773.024 8.6377 772.921 9.07064 772.83 9.33496L770.533 16H768.729L766.391 9.40332C766.327 9.22559 766.224 8.76986 766.083 8.03613H766.021C766.081 9.00228 766.11 9.84993 766.11 10.5791V16H764.121V6.19727H767.354L769.357 12.0078C769.517 12.4727 769.633 12.9398 769.706 13.4092H769.747C769.87 12.8669 770 12.3952 770.137 11.9941L772.14 6.19727H775.291V16ZM783.132 16H781.088V14.9951H781.061C780.591 15.779 779.896 16.1709 778.976 16.1709C778.297 16.1709 777.761 15.9795 777.369 15.5967C776.982 15.2093 776.788 14.6943 776.788 14.0518C776.788 12.6937 777.592 11.9098 779.201 11.7002L781.102 11.4473C781.102 10.6816 780.687 10.2988 779.857 10.2988C779.023 10.2988 778.23 10.5472 777.479 11.0439V9.41699C777.779 9.26204 778.189 9.12533 778.709 9.00684C779.233 8.88835 779.709 8.8291 780.138 8.8291C782.134 8.8291 783.132 9.82487 783.132 11.8164V16ZM781.102 13.1562V12.6846L779.83 12.8486C779.128 12.9398 778.777 13.2565 778.777 13.7988C778.777 14.0449 778.862 14.2477 779.03 14.4072C779.203 14.5622 779.436 14.6396 779.728 14.6396C780.133 14.6396 780.464 14.5007 780.719 14.2227C780.974 13.9401 781.102 13.5846 781.102 13.1562ZM791.506 9L788.662 16.5605C787.979 18.3789 786.949 19.2881 785.572 19.2881C785.048 19.2881 784.618 19.2288 784.28 19.1104V17.3877C784.567 17.5563 784.88 17.6406 785.217 17.6406C785.773 17.6406 786.16 17.3786 786.379 16.8545L786.748 15.9863L783.904 9H786.297L787.603 13.2588C787.685 13.5231 787.748 13.8353 787.794 14.1953H787.821C787.862 13.931 787.938 13.6234 788.047 13.2725L789.366 9H791.506Z" fill="black"/>
<path d="M958.209 12.1104C958.209 13.4229 957.904 14.4277 957.293 15.125C956.687 15.8223 955.807 16.1709 954.654 16.1709C954.139 16.1709 953.663 16.082 953.226 15.9043V13.833C953.604 14.1201 954.028 14.2637 954.497 14.2637C955.504 14.2637 956.008 13.5163 956.008 12.0215V6.19727H958.209V12.1104ZM966.795 16H964.642V14.9336H964.607C964.074 15.7585 963.361 16.1709 962.468 16.1709C960.845 16.1709 960.034 15.1888 960.034 13.2246V9H962.188V13.0332C962.188 14.0221 962.579 14.5166 963.363 14.5166C963.751 14.5166 964.061 14.3822 964.293 14.1133C964.525 13.8398 964.642 13.4707 964.642 13.0059V9H966.795V16ZM975.381 16H973.228V12.1104C973.228 11.0257 972.84 10.4834 972.065 10.4834C971.692 10.4834 971.384 10.627 971.143 10.9141C970.901 11.2012 970.78 11.5658 970.78 12.0078V16H968.62V9H970.78V10.1074H970.808C971.323 9.25521 972.072 8.8291 973.057 8.8291C974.606 8.8291 975.381 9.79069 975.381 11.7139V16Z" fill="black"/>
<defs>
<linearGradient id="paint0_linear" x1="83.5483" y1="130.988" x2="83.5483" y2="265.244" gradientUnits="userSpaceOnUse">
<stop stop-color="#0294FF" stop-opacity="0.45"/>
<stop offset="1" stop-color="white" stop-opacity="0.01"/>
</linearGradient>
</defs>
</svg>
